# xmcd
#
# Track frame offsets: 
#        150
#        7846
#        29712
#        38168
#        65408
#        71874
#        94401
#        102049
#        126855
#        132393
#        155406
#        166292
#        189518
#        196646
#        223020
#        234605
#        256085
#        262032
#        280326
#        289456
#
# Disc length: 4240 seconds
#
# Revision: 0
# Processed by: cddbd v1.5.2PL0 Copyright (c) Steve Scherf et al.
# Submitted via: ExactAudioCopy v0.99pb4
#
DISCID=2c108e14
DTITLE=Hank Williams - Mother's Best [CD9)
DYEAR=1951
DGENRE=Country
TTITLE0=Mother's Best 10-B2
TTITLE1=Cold Cold Heart
TTITLE2=Dance All Night, Give The Fiddler A Dram
TTITLE3=Old Country Church
TTITLE4=Mother's Best 11-A1
TTITLE5=Moanin' The Blues
TTITLE6=Blue Steel Blus
TTITLE7=I Dreamed About Mama Last Night
TTITLE8=Mother's Best 11-A2
TTITLE9=I Hang My Head and Cry
TTITLE10=Tennessee Wagoner
TTITLE11=At The Cross
TTITLE12=Mother's Best 11-B1
TTITLE13=I Dreamed About Mama Last Night
TTITLE14=Black Mountain Rag
TTITLE15=I Heard My Saviour Call
TTITLE16=Mother's Best 11-B2
TTITLE17=Low and Lonely
TTITLE18=Foolish Questions (Big Bill Lister)
TTITLE19=The Funeral
EXTD=
EXTT0=
EXTT1=
EXTT2=
EXTT3=
EXTT4=
EXTT5=
EXTT6=
EXTT7=
EXTT8=
EXTT9=
EXTT10=
EXTT11=
EXTT12=
EXTT13=
EXTT14=
EXTT15=
EXTT16=
EXTT17=
EXTT18=
EXTT19=
PLAYORDER=
